<svg width="200" height="120" viewBox="0 0 200 120" xmlns="http://www.w3.org/2000/svg">
  <!-- Car body -->
  <rect x="20" y="40" width="160" height="50" rx="8" fill="#E8E8E8" stroke="#999" stroke-width="2"/>
  
  <!-- Car roof -->
  <rect x="40" y="25" width="120" height="25" rx="6" fill="#F2F2F2" stroke="#999" stroke-width="1"/>
  
  <!-- Windows -->
  <rect x="45" y="30" width="35" height="15" rx="2" fill="#87CEEB" opacity="0.7"/>
  <rect x="120" y="30" width="35" height="15" rx="2" fill="#87CEEB" opacity="0.7"/>
  
  <!-- Wheels -->
  <circle cx="50" cy="95" r="15" fill="#333" stroke="#222" stroke-width="2"/>
  <circle cx="150" cy="95" r="15" fill="#333" stroke="#222" stroke-width="2"/>
  <circle cx="50" cy="95" r="8" fill="#555"/>
  <circle cx="150" cy="95" r="8" fill="#555"/>
  
  <!-- Headlights -->
  <circle cx="185" cy="55" r="6" fill="#FFFACD" stroke="#DDD" stroke-width="1"/>
  <circle cx="185" cy="75" r="6" fill="#FFFACD" stroke="#DDD" stroke-width="1"/>
  
  <!-- Grille -->
  <rect x="175" y="50" width="8" height="25" fill="#666"/>
  <line x1="177" y1="52" x2="177" y2="73" stroke="#888" stroke-width="1"/>
  <line x1="179" y1="52" x2="179" y2="73" stroke="#888" stroke-width="1"/>
  <line x1="181" y1="52" x2="181" y2="73" stroke="#888" stroke-width="1"/>
  
  <!-- Door handles -->
  <rect x="70" y="62" width="4" height="2" rx="1" fill="#999"/>
  <rect x="126" y="62" width="4" height="2" rx="1" fill="#999"/>
  
  <!-- Shadow -->
  <ellipse cx="100" cy="110" rx="80" ry="8" fill="#000" opacity="0.2"/>
</svg>